<svg id="visual" viewBox="0 0 900 600" width="900" height="600" xmlns="http://www.w3.org/2000/svg" xmlns:xlink="http://www.w3.org/1999/xlink" version="1.1"><rect x="0" y="0" width="900" height="600" fill="#001220"></rect><path d="M0 387L18.8 388.2C37.7 389.3 75.3 391.7 112.8 383.5C150.3 375.3 187.7 356.7 225.2 349.8C262.7 343 300.3 348 337.8 356.2C375.3 364.3 412.7 375.7 450.2 374.3C487.7 373 525.3 359 562.8 360.7C600.3 362.3 637.7 379.7 675.2 382.7C712.7 385.7 750.3 374.3 787.8 374.3C825.3 374.3 862.7 385.7 881.3 391.3L900 397L900 601L881.3 601C862.7 601 825.3 601 787.8 601C750.3 601 712.7 601 675.2 601C637.7 601 600.3 601 562.8 601C525.3 601 487.7 601 450.2 601C412.7 601 375.3 601 337.8 601C300.3 601 262.7 601 225.2 601C187.7 601 150.3 601 112.8 601C75.3 601 37.7 601 18.8 601L0 601Z" fill="#fa7268"></path><path d="M0 410L18.8 408.7C37.7 407.3 75.3 404.7 112.8 405.2C150.3 405.7 187.7 409.3 225.2 414.2C262.7 419 300.3 425 337.8 422.3C375.3 419.7 412.7 408.3 450.2 408.5C487.7 408.7 525.3 420.3 562.8 422.8C600.3 425.3 637.7 418.7 675.2 408.7C712.7 398.7 750.3 385.3 787.8 383.2C825.3 381 862.7 390 881.3 394.5L900 399L900 601L881.3 601C862.7 601 825.3 601 787.8 601C750.3 601 712.7 601 675.2 601C637.7 601 600.3 601 562.8 601C525.3 601 487.7 601 450.2 601C412.7 601 375.3 601 337.8 601C300.3 601 262.7 601 225.2 601C187.7 601 150.3 601 112.8 601C75.3 601 37.7 601 18.8 601L0 601Z" fill="#e75267"></path><path d="M0 453L18.8 451.7C37.7 450.3 75.3 447.7 112.8 447.3C150.3 447 187.7 449 225.2 449.8C262.7 450.7 300.3 450.3 337.8 443.7C375.3 437 412.7 424 450.2 418.3C487.7 412.7 525.3 414.3 562.8 415.3C600.3 416.3 637.7 416.7 675.2 417.3C712.7 418 750.3 419 787.8 422.5C825.3 426 862.7 432 881.3 435L900 438L900 601L881.3 601C862.7 601 825.3 601 787.8 601C750.3 601 712.7 601 675.2 601C637.7 601 600.3 601 562.8 601C525.3 601 487.7 601 450.2 601C412.7 601 375.3 601 337.8 601C300.3 601 262.7 601 225.2 601C187.7 601 150.3 601 112.8 601C75.3 601 37.7 601 18.8 601L0 601Z" fill="#d03267"></path><path d="M0 454L18.8 455.7C37.7 457.3 75.3 460.7 112.8 460C150.3 459.3 187.7 454.7 225.2 454.2C262.7 453.7 300.3 457.3 337.8 455.8C375.3 454.3 412.7 447.7 450.2 446.7C487.7 445.7 525.3 450.3 562.8 451.8C600.3 453.3 637.7 451.7 675.2 449.3C712.7 447 750.3 444 787.8 446.5C825.3 449 862.7 457 881.3 461L900 465L900 601L881.3 601C862.7 601 825.3 601 787.8 601C750.3 601 712.7 601 675.2 601C637.7 601 600.3 601 562.8 601C525.3 601 487.7 601 450.2 601C412.7 601 375.3 601 337.8 601C300.3 601 262.7 601 225.2 601C187.7 601 150.3 601 112.8 601C75.3 601 37.7 601 18.8 601L0 601Z" fill="#c62368"></path><path d="M0 489L18.8 493C37.7 497 75.3 505 112.8 504.5C150.3 504 187.7 495 225.2 490.7C262.7 486.3 300.3 486.7 337.8 487.3C375.3 488 412.7 489 450.2 492.3C487.7 495.7 525.3 501.3 562.8 499C600.3 496.7 637.7 486.3 675.2 481.5C712.7 476.7 750.3 477.3 787.8 480.2C825.3 483 862.7 488 881.3 490.5L900 493L900 601L881.3 601C862.7 601 825.3 601 787.8 601C750.3 601 712.7 601 675.2 601C637.7 601 600.3 601 562.8 601C525.3 601 487.7 601 450.2 601C412.7 601 375.3 601 337.8 601C300.3 601 262.7 601 225.2 601C187.7 601 150.3 601 112.8 601C75.3 601 37.7 601 18.8 601L0 601Z" fill="#d03267"></path><path d="M0 534L18.8 530.2C37.7 526.3 75.3 518.7 112.8 518.5C150.3 518.3 187.7 525.7 225.2 526.7C262.7 527.7 300.3 522.3 337.8 524.5C375.3 526.7 412.7 536.3 450.2 535.7C487.7 535 525.3 524 562.8 524.2C600.3 524.3 637.7 535.7 675.2 540.8C712.7 546 750.3 545 787.8 545.5C825.3 546 862.7 548 881.3 549L900 550L900 601L881.3 601C862.7 601 825.3 601 787.8 601C750.3 601 712.7 601 675.2 601C637.7 601 600.3 601 562.8 601C525.3 601 487.7 601 450.2 601C412.7 601 375.3 601 337.8 601C300.3 601 262.7 601 225.2 601C187.7 601 150.3 601 112.8 601C75.3 601 37.7 601 18.8 601L0 601Z" fill="#e75267"></path><path d="M0 551L18.8 551.3C37.7 551.7 75.3 552.3 112.8 557C150.3 561.7 187.7 570.3 225.2 574.8C262.7 579.3 300.3 579.7 337.8 573.7C375.3 567.7 412.7 555.3 450.2 554C487.7 552.7 525.3 562.3 562.8 563C600.3 563.7 637.7 555.3 675.2 554.8C712.7 554.3 750.3 561.7 787.8 561.7C825.3 561.7 862.7 554.3 881.3 550.7L900 547L900 601L881.3 601C862.7 601 825.3 601 787.8 601C750.3 601 712.7 601 675.2 601C637.7 601 600.3 601 562.8 601C525.3 601 487.7 601 450.2 601C412.7 601 375.3 601 337.8 601C300.3 601 262.7 601 225.2 601C187.7 601 150.3 601 112.8 601C75.3 601 37.7 601 18.8 601L0 601Z" fill="#fa7268"></path></svg>